<svg xmlns="http://www.w3.org/2000/svg" viewBox="0 0 1280 720" width="1280" height="720">
  <defs>
    <linearGradient id="bg" x1="0" y1="0" x2="1" y2="1"><stop offset="0" stop-color="#0f1219"/><stop offset="1" stop-color="#1a1f2e"/></linearGradient>
    <linearGradient id="o" x1="0" y1="0" x2="1" y2="1"><stop offset="0" stop-color="#f97316"/><stop offset="1" stop-color="#ea580c"/></linearGradient>
    <linearGradient id="g" x1="0" y1="0" x2="1" y2="1"><stop offset="0" stop-color="#22c55e"/><stop offset="1" stop-color="#16a34a"/></linearGradient>
    <linearGradient id="b" x1="0" y1="0" x2="1" y2="1"><stop offset="0" stop-color="#3b82f6"/><stop offset="1" stop-color="#2563eb"/></linearGradient>
    <linearGradient id="p" x1="0" y1="0" x2="1" y2="1"><stop offset="0" stop-color="#a855f7"/><stop offset="1" stop-color="#7c3aed"/></linearGradient>
    <filter id="sh"><feDropShadow dx="0" dy="2" stdDeviation="8" flood-color="#000" flood-opacity="0.4"/></filter>
  </defs>
  <rect width="1280" height="720" fill="url(#bg)"/>
  <rect x="0" y="0" width="280" height="720" fill="#11151e" filter="url(#sh)"/>
  <line x1="280" y1="0" x2="280" y2="720" stroke="#2a3348" stroke-width="1"/>
  <rect x="20" y="20" width="44" height="44" rx="10" fill="rgba(249,115,22,0.15)" stroke="#f97316" stroke-width="1.5"/>
  <polygon points="32,28 48,38 32,48 16,38" fill="none" stroke="#f97316" stroke-width="2"/>
  <line x1="32" y1="28" x2="32" y2="48" stroke="#f97316" stroke-width="2"/>
  <line x1="16" y1="38" x2="48" y2="38" stroke="#f97316" stroke-width="1.5"/>
  <text x="76" y="36" fill="#e8edf5" font-family="Segoe UI,sans-serif" font-size="15" font-weight="bold">RakElektronik</text>
  <text x="76" y="52" fill="#9ca8b8" font-family="Segoe UI,sans-serif" font-size="11">Sistem Gudang Elektronik</text>
  <text x="24" y="100" fill="#5a6a7e" font-family="Segoe UI,sans-serif" font-size="10" letter-spacing="2">OVERVIEW</text>
  <rect x="14" y="112" width="252" height="38" rx="8" fill="rgba(249,115,22,0.12)" stroke="rgba(249,115,22,0.4)"/>
  <rect x="14" y="112" width="3" height="38" rx="1.5" fill="#f97316"/>
  <text x="48" y="138" fill="#fff" font-family="Segoe UI,sans-serif" font-size="14" font-weight="600">Dashboard</text>
  <text x="24" y="180" fill="#5a6a7e" font-family="Segoe UI,sans-serif" font-size="10" letter-spacing="2">MASTER DATA</text>
  <rect x="14" y="192" width="252" height="38" rx="8" fill="transparent"/><text x="48" y="218" fill="#b0c0d4" font-family="Segoe UI,sans-serif" font-size="13">Data Barang</text>
  <rect x="14" y="234" width="252" height="38" rx="8" fill="transparent"/><text x="48" y="260" fill="#b0c0d4" font-family="Segoe UI,sans-serif" font-size="13">Kategori</text>
  <rect x="14" y="276" width="252" height="38" rx="8" fill="transparent"/><text x="48" y="302" fill="#b0c0d4" font-family="Segoe UI,sans-serif" font-size="13">Data Customer</text>
  <text x="24" y="340" fill="#5a6a7e" font-family="Segoe UI,sans-serif" font-size="10" letter-spacing="2">SALES & ORDER</text>
  <rect x="14" y="352" width="252" height="38" rx="8" fill="transparent"/><text x="48" y="378" fill="#b0c0d4" font-family="Segoe UI,sans-serif" font-size="13">Pesanan</text>
  <text x="24" y="420" fill="#5a6a7e" font-family="Segoe UI,sans-serif" font-size="10" letter-spacing="2">WAREHOUSE OPERATIONS</text>
  <rect x="14" y="432" width="252" height="38" rx="8" fill="transparent"/><text x="48" y="458" fill="#b0c0d4" font-family="Segoe UI,sans-serif" font-size="13">Barang Masuk</text>
  <rect x="14" y="474" width="252" height="38" rx="8" fill="transparent"/><text x="48" y="500" fill="#b0c0d4" font-family="Segoe UI,sans-serif" font-size="13">Pengeluaran Barang</text>
  <rect x="14" y="516" width="252" height="38" rx="8" fill="transparent"/><text x="48" y="542" fill="#b0c0d4" font-family="Segoe UI,sans-serif" font-size="13">Stok</text>
  <text x="24" y="580" fill="#5a6a7e" font-family="Segoe UI,sans-serif" font-size="10" letter-spacing="2">REPORTS</text>
  <rect x="14" y="592" width="252" height="38" rx="8" fill="transparent"/><text x="48" y="618" fill="#b0c0d4" font-family="Segoe UI,sans-serif" font-size="13">Laporan</text>
  <text x="24" y="656" fill="#5a6a7e" font-family="Segoe UI,sans-serif" font-size="10" letter-spacing="2">ADMINISTRATION</text>
  <rect x="14" y="668" width="252" height="38" rx="8" fill="transparent"/><text x="48" y="694" fill="#b0c0d4" font-family="Segoe UI,sans-serif" font-size="13">Users / Admin</text>
  <rect x="296" y="0" width="984" height="60" fill="#141a26"/>
  <line x1="296" y1="60" x2="1280" y2="60" stroke="#2a3348" stroke-width="1"/>
  <rect x="310" y="15" width="240" height="32" rx="8" fill="#1c2434" stroke="#2a3348" stroke-width="1"/>
  <text x="328" y="37" fill="#5a6a7e" font-family="Segoe UI,sans-serif" font-size="13">Cari sesuatu...</text>
  <rect x="1120" y="14" width="34" height="34" rx="17" fill="#2a3348"/>
  <circle cx="1137" cy="25" r="7" fill="#5a6a7e"/><circle cx="1137" cy="40" r="10" fill="#5a6a7e"/>
  <text x="1164" y="32" fill="#e8edf5" font-family="Segoe UI,sans-serif" font-size="13" font-weight="600">Super Admin</text>
  <text x="1164" y="46" fill="#9ca8b8" font-family="Segoe UI,sans-serif" font-size="10">superadmin</text>
  <text x="310" y="98" fill="#e8edf5" font-family="Segoe UI,sans-serif" font-size="22" font-weight="bold">Dashboard</text>
  <text x="310" y="118" fill="#7d8aa0" font-family="Segoe UI,sans-serif" font-size="13">Overview sistem gudang elektronik</text>
  <rect x="310" y="140" width="220" height="100" rx="12" fill="#1c2434" stroke="#2a3348" stroke-width="1" filter="url(#sh)"/>
  <text x="330" y="170" fill="#9ca8b8" font-family="Segoe UI,sans-serif" font-size="12">Total Barang</text>
  <text x="330" y="200" fill="#e8edf5" font-family="Segoe UI,sans-serif" font-size="28" font-weight="bold">1,248</text>
  <rect x="330" y="212" width="60" height="20" rx="10" fill="rgba(34,197,94,0.15)"/>
  <text x="338" y="226" fill="#22c55e" font-family="Segoe UI,sans-serif" font-size="10" font-weight="600">+12.5%</text>
  <rect x="548" y="140" width="220" height="100" rx="12" fill="#1c2434" stroke="#2a3348" stroke-width="1" filter="url(#sh)"/>
  <text x="568" y="170" fill="#9ca8b8" font-family="Segoe UI,sans-serif" font-size="12">Total Stok</text>
  <text x="568" y="200" fill="#e8edf5" font-family="Segoe UI,sans-serif" font-size="28" font-weight="bold">48,592</text>
  <rect x="568" y="212" width="60" height="20" rx="10" fill="rgba(59,130,246,0.15)"/>
  <text x="576" y="226" fill="#3b82f6" font-family="Segoe UI,sans-serif" font-size="10" font-weight="600">+8.3%</text>
  <rect x="786" y="140" width="220" height="100" rx="12" fill="#1c2434" stroke="#2a3348" stroke-width="1" filter="url(#sh)"/>
  <text x="806" y="170" fill="#9ca8b8" font-family="Segoe UI,sans-serif" font-size="12">Pesanan Aktif</text>
  <text x="806" y="200" fill="#e8edf5" font-family="Segoe UI,sans-serif" font-size="28" font-weight="bold">24</text>
  <rect x="806" y="212" width="60" height="20" rx="10" fill="rgba(249,115,22,0.15)"/>
  <text x="814" y="226" fill="#f97316" font-family="Segoe UI,sans-serif" font-size="10" font-weight="600">+5.1%</text>
  <rect x="1024" y="140" width="220" height="100" rx="12" fill="#1c2434" stroke="#2a3348" stroke-width="1" filter="url(#sh)"/>
  <text x="1044" y="170" fill="#9ca8b8" font-family="Segoe UI,sans-serif" font-size="12">Stok Menipis</text>
  <text x="1044" y="200" fill="#e8edf5" font-family="Segoe UI,sans-serif" font-size="28" font-weight="bold">8</text>
  <rect x="1044" y="212" width="60" height="20" rx="10" fill="rgba(239,68,68,0.15)"/>
  <text x="1052" y="226" fill="#ef4444" font-family="Segoe UI,sans-serif" font-size="10" font-weight="600">+2.0%</text>
  <rect x="310" y="260" width="520" height="280" rx="12" fill="#1c2434" stroke="#2a3348" stroke-width="1" filter="url(#sh)"/>
  <text x="330" y="290" fill="#e8edf5" font-family="Segoe UI,sans-serif" font-size="15" font-weight="600">Grafik Stok Bulanan</text>
  <rect x="340" y="380" width="36" height="120" rx="4" fill="url(#o)" opacity="0.8"/>
  <rect x="395" y="350" width="36" height="150" rx="4" fill="url(#b)" opacity="0.8"/>
  <rect x="450" y="370" width="36" height="130" rx="4" fill="url(#g)" opacity="0.8"/>
  <rect x="505" y="390" width="36" height="110" rx="4" fill="url(#p)" opacity="0.8"/>
  <rect x="560" y="360" width="36" height="140" rx="4" fill="url(#o)" opacity="0.8"/>
  <rect x="615" y="340" width="36" height="160" rx="4" fill="url(#b)" opacity="0.8"/>
  <rect x="670" y="375" width="36" height="125" rx="4" fill="url(#g)" opacity="0.8"/>
  <rect x="725" y="355" width="36" height="145" rx="4" fill="url(#p)" opacity="0.8"/>
  <text x="348" y="515" fill="#5a6a7e" font-family="Segoe UI,sans-serif" font-size="10" text-anchor="middle">Jan</text>
  <text x="403" y="515" fill="#5a6a7e" font-family="Segoe UI,sans-serif" font-size="10" text-anchor="middle">Feb</text>
  <text x="458" y="515" fill="#5a6a7e" font-family="Segoe UI,sans-serif" font-size="10" text-anchor="middle">Mar</text>
  <text x="513" y="515" fill="#5a6a7e" font-family="Segoe UI,sans-serif" font-size="10" text-anchor="middle">Apr</text>
  <text x="568" y="515" fill="#5a6a7e" font-family="Segoe UI,sans-serif" font-size="10" text-anchor="middle">Mei</text>
  <text x="623" y="515" fill="#5a6a7e" font-family="Segoe UI,sans-serif" font-size="10" text-anchor="middle">Jun</text>
  <text x="678" y="515" fill="#5a6a7e" font-family="Segoe UI,sans-serif" font-size="10" text-anchor="middle">Jul</text>
  <text x="733" y="515" fill="#5a6a7e" font-family="Segoe UI,sans-serif" font-size="10" text-anchor="middle">Agu</text>
  <rect x="848" y="260" width="396" height="130" rx="12" fill="#1c2434" stroke="#2a3348" stroke-width="1" filter="url(#sh)"/>
  <text x="868" y="290" fill="#e8edf5" font-family="Segoe UI,sans-serif" font-size="15" font-weight="600">Aktivitas Terbaru</text>
  <line x1="884" y1="310" x2="884" y2="375" stroke="#2a3348" stroke-width="2"/>
  <circle cx="884" cy="315" r="4" fill="#22c55e"/>
  <text x="900" y="320" fill="#c7d0df" font-family="Segoe UI,sans-serif" font-size="12">Stok masuk: 50x Samsung TV 32"</text>
  <circle cx="884" cy="340" r="4" fill="#3b82f6"/>
  <text x="900" y="345" fill="#c7d0df" font-family="Segoe UI,sans-serif" font-size="12">Pesanan baru #INV-2024-0891</text>
  <circle cx="884" cy="365" r="4" fill="#f97316"/>
  <text x="900" y="370" fill="#c7d0df" font-family="Segoe UI,sans-serif" font-size="12">Stok menipis: LG Soundbar</text>
  <rect x="848" y="405" width="396" height="135" rx="12" fill="#1c2434" stroke="#2a3348" stroke-width="1" filter="url(#sh)"/>
  <text x="868" y="435" fill="#e8edf5" font-family="Segoe UI,sans-serif" font-size="15" font-weight="600">Status Stok</text>
  <rect x="868" y="450" width="356" height="6" rx="3" fill="#2a3348"/>
  <rect x="868" y="450" width="280" height="6" rx="3" fill="#22c55e"/>
  <text x="868" y="470" fill="#9ca8b8" font-family="Segoe UI,sans-serif" font-size="11">Tersedia</text>
  <text x="1190" y="470" fill="#22c55e" font-family="Segoe UI,sans-serif" font-size="11" font-weight="600">78%</text>
  <rect x="868" y="480" width="356" height="6" rx="3" fill="#2a3348"/>
  <rect x="868" y="480" width="65" height="6" rx="3" fill="#f97316"/>
  <text x="868" y="500" fill="#9ca8b8" font-family="Segoe UI,sans-serif" font-size="11">Dipesan</text>
  <text x="1190" y="500" fill="#f97316" font-family="Segoe UI,sans-serif" font-size="11" font-weight="600">18%</text>
  <rect x="868" y="510" width="356" height="6" rx="3" fill="#2a3348"/>
  <rect x="868" y="510" width="15" height="6" rx="3" fill="#ef4444"/>
  <text x="868" y="530" fill="#9ca8b8" font-family="Segoe UI,sans-serif" font-size="11">Stok Habis</text>
  <text x="1190" y="530" fill="#ef4444" font-family="Segoe UI,sans-serif" font-size="11" font-weight="600">4%</text>
  <text x="296" y="700" fill="#3a4a5e" font-family="Segoe UI,sans-serif" font-size="11">RakElektronik v1.0.0 &mdash; Warehouse Management System</text>
</svg>