<svg xmlns="http://www.w3.org/2000/svg" viewBox="0 0 1280 720" width="1280" height="720">
  <defs><linearGradient id="ibg" x1="0" y1="0" x2="1" y2="1"><stop offset="0" stop-color="#0f1219"/><stop offset="1" stop-color="#1a1f2e"/></linearGradient><filter id="is"><feDropShadow dx="0" dy="2" stdDeviation="8" flood-color="#000" flood-opacity="0.4"/></filter></defs>
  <rect width="1280" height="720" fill="url(#ibg)"/><rect x="0" y="0" width="280" height="720" fill="#11151e"/>
  <rect x="20" y="20" width="44" height="44" rx="10" fill="rgba(249,115,22,0.15)" stroke="#f97316" stroke-width="1.5"/>
  <polygon points="32,28 48,38 32,48 16,38" fill="none" stroke="#f97316" stroke-width="2"/>
  <line x1="32" y1="28" x2="32" y2="48" stroke="#f97316" stroke-width="2"/>
  <line x1="16" y1="38" x2="48" y2="38" stroke="#f97316" stroke-width="1.5"/>
  <text x="76" y="36" fill="#e8edf5" font-family="Segoe UI,sans-serif" font-size="15" font-weight="bold">RakElektronik</text><text x="76" y="52" fill="#9ca8b8" font-family="Segoe UI,sans-serif" font-size="11">Sistem Gudang Elektronik</text>
  <text x="24" y="100" fill="#5a6a7e" font-family="Segoe UI,sans-serif" font-size="10" letter-spacing="2">OVERVIEW</text>
  <rect x="14" y="112" width="252" height="38" rx="8" fill="transparent"/><text x="48" y="138" fill="#b0c0d4" font-family="Segoe UI,sans-serif" font-size="14">Dashboard</text>
  <text x="24" y="180" fill="#5a6a7e" font-family="Segoe UI,sans-serif" font-size="10" letter-spacing="2">MASTER DATA</text>
  <rect x="14" y="192" width="252" height="38" rx="8" fill="transparent"/><text x="48" y="218" fill="#b0c0d4" font-family="Segoe UI,sans-serif" font-size="13">Data Barang</text>
  <rect x="14" y="234" width="252" height="38" rx="8" fill="transparent"/><text x="48" y="260" fill="#b0c0d4" font-family="Segoe UI,sans-serif" font-size="13">Kategori</text>
  <rect x="14" y="276" width="252" height="38" rx="8" fill="transparent"/><text x="48" y="302" fill="#b0c0d4" font-family="Segoe UI,sans-serif" font-size="13">Data Customer</text>
  <text x="24" y="340" fill="#5a6a7e" font-family="Segoe UI,sans-serif" font-size="10" letter-spacing="2">SALES & ORDER</text>
  <rect x="14" y="352" width="252" height="38" rx="8" fill="transparent"/><text x="48" y="378" fill="#b0c0d4" font-family="Segoe UI,sans-serif" font-size="13">Pesanan</text>
  <text x="24" y="420" fill="#5a6a7e" font-family="Segoe UI,sans-serif" font-size="10" letter-spacing="2">WAREHOUSE OPERATIONS</text>
  <rect x="14" y="432" width="252" height="38" rx="8" fill="rgba(249,115,22,0.12)" stroke="rgba(249,115,22,0.4)"/>
  <rect x="14" y="432" width="3" height="38" rx="1.5" fill="#f97316"/>
  <text x="48" y="458" fill="#fff" font-family="Segoe UI,sans-serif" font-size="14" font-weight="600">Barang Masuk</text>
  <rect x="14" y="474" width="252" height="38" rx="8" fill="transparent"/><text x="48" y="500" fill="#b0c0d4" font-family="Segoe UI,sans-serif" font-size="13">Pengeluaran Barang</text>
  <rect x="14" y="516" width="252" height="38" rx="8" fill="transparent"/><text x="48" y="542" fill="#b0c0d4" font-family="Segoe UI,sans-serif" font-size="13">Stok</text>
  <text x="24" y="580" fill="#5a6a7e" font-family="Segoe UI,sans-serif" font-size="10" letter-spacing="2">REPORTS</text>
  <rect x="14" y="592" width="252" height="38" rx="8" fill="transparent"/><text x="48" y="618" fill="#b0c0d4" font-family="Segoe UI,sans-serif" font-size="13">Laporan</text>
  <text x="24" y="656" fill="#5a6a7e" font-family="Segoe UI,sans-serif" font-size="10" letter-spacing="2">ADMINISTRATION</text>
  <rect x="14" y="668" width="252" height="38" rx="8" fill="transparent"/><text x="48" y="694" fill="#b0c0d4" font-family="Segoe UI,sans-serif" font-size="13">Users / Admin</text>
  <rect x="296" y="0" width="984" height="60" fill="#141a26"/>
  <line x1="296" y1="60" x2="1280" y2="60" stroke="#2a3348" stroke-width="1"/>
  <rect x="1120" y="14" width="34" height="34" rx="17" fill="#2a3348"/>
  <circle cx="1137" cy="25" r="7" fill="#5a6a7e"/><circle cx="1137" cy="40" r="10" fill="#5a6a7e"/>
  <text x="1164" y="32" fill="#e8edf5" font-family="Segoe UI,sans-serif" font-size="13" font-weight="600">Super Admin</text><text x="1164" y="46" fill="#9ca8b8" font-family="Segoe UI,sans-serif" font-size="10">superadmin</text>
  <text x="310" y="98" fill="#e8edf5" font-family="Segoe UI,sans-serif" font-size="22" font-weight="bold">Barang Masuk</text>
  <text x="310" y="118" fill="#7d8aa0" font-family="Segoe UI,sans-serif" font-size="13">Riwayat penerimaan stok barang</text>
  <rect x="310" y="140" width="220" height="90" rx="12" fill="#1c2434" stroke="#2a3348" stroke-width="1" filter="url(#is)"/>
  <text x="330" y="170" fill="#9ca8b8" font-family="Segoe UI,sans-serif" font-size="12">Hari Ini</text>
  <text x="330" y="200" fill="#e8edf5" font-family="Segoe UI,sans-serif" font-size="24" font-weight="bold">24</text>
  <rect x="548" y="140" width="220" height="90" rx="12" fill="#1c2434" stroke="#2a3348" stroke-width="1" filter="url(#is)"/>
  <text x="568" y="170" fill="#9ca8b8" font-family="Segoe UI,sans-serif" font-size="12">Minggu Ini</text>
  <text x="568" y="200" fill="#e8edf5" font-family="Segoe UI,sans-serif" font-size="24" font-weight="bold">156</text>
  <rect x="786" y="140" width="220" height="90" rx="12" fill="#1c2434" stroke="#2a3348" stroke-width="1" filter="url(#is)"/>
  <text x="806" y="170" fill="#9ca8b8" font-family="Segoe UI,sans-serif" font-size="12">Bulan Ini</text>
  <text x="806" y="200" fill="#e8edf5" font-family="Segoe UI,sans-serif" font-size="24" font-weight="bold">589</text>
  <rect x="1024" y="140" width="220" height="90" rx="12" fill="#1c2434" stroke="#2a3348" stroke-width="1" filter="url(#is)"/>
  <text x="1044" y="170" fill="#9ca8b8" font-family="Segoe UI,sans-serif" font-size="12">Supplier</text>
  <text x="1044" y="200" fill="#e8edf5" font-family="Segoe UI,sans-serif" font-size="24" font-weight="bold">12</text>
  <rect x="310" y="250" width="930" height="300" rx="10" fill="#1c2434" stroke="#2a3348" stroke-width="1"/>
  <rect x="310" y="250" width="930" height="40" rx="10" fill="#141a26"/>
  <text x="330" y="276" fill="#9ca8b8" font-family="Segoe UI,sans-serif" font-size="12" font-weight="bold">Tanggal</text>
  <text x="460" y="276" fill="#9ca8b8" font-family="Segoe UI,sans-serif" font-size="12" font-weight="bold">Produk</text>
  <text x="660" y="276" fill="#9ca8b8" font-family="Segoe UI,sans-serif" font-size="12" font-weight="bold">Supplier</text>
  <text x="830" y="276" fill="#9ca8b8" font-family="Segoe UI,sans-serif" font-size="12" font-weight="bold">Jumlah</text>
  <text x="980" y="276" fill="#9ca8b8" font-family="Segoe UI,sans-serif" font-size="12" font-weight="bold">PIC</text>
  <text x="1120" y="276" fill="#9ca8b8" font-family="Segoe UI,sans-serif" font-size="12" font-weight="bold">Status</text>
  <line x1="310" y1="290" x2="1240" y2="290" stroke="#2a3348" stroke-width="1"/>
  <text x="330" y="316" fill="#c7d0df" font-family="Segoe UI,sans-serif" font-size="13">14 Jun 2026</text>
  <text x="460" y="316" fill="#e8edf5" font-family="Segoe UI,sans-serif" font-size="13">Samsung Galaxy S24</text>
  <text x="660" y="316" fill="#b0c0d4" font-family="Segoe UI,sans-serif" font-size="13">PT Samsung</text>
  <text x="840" y="316" fill="#e8edf5" font-family="Segoe UI,sans-serif" font-size="13">50</text>
  <text x="980" y="316" fill="#b0c0d4" font-family="Segoe UI,sans-serif" font-size="13">Staff Gudang</text>
  <rect x="1110" y="304" width="60" height="22" rx="11" fill="rgba(34,197,94,0.15)"/>
  <text x="1140" y="319" text-anchor="middle" fill="#22c55e" font-family="Segoe UI,sans-serif" font-size="11">Selesai</text>
  <line x1="310" y1="330" x2="1240" y2="330" stroke="#1c2434" stroke-width="1"/>
  <text x="330" y="356" fill="#c7d0df" font-family="Segoe UI,sans-serif" font-size="13">13 Jun 2026</text>
  <text x="460" y="356" fill="#e8edf5" font-family="Segoe UI,sans-serif" font-size="13">LG 43" 4K TV</text>
  <text x="660" y="356" fill="#b0c0d4" font-family="Segoe UI,sans-serif" font-size="13">PT LG</text>
  <text x="840" y="356" fill="#e8edf5" font-family="Segoe UI,sans-serif" font-size="13">30</text>
  <text x="980" y="356" fill="#b0c0d4" font-family="Segoe UI,sans-serif" font-size="13">Staff Gudang</text>
  <rect x="1110" y="344" width="60" height="22" rx="11" fill="rgba(59,130,246,0.15)"/>
  <text x="1140" y="359" text-anchor="middle" fill="#3b82f6" font-family="Segoe UI,sans-serif" font-size="11">Proses</text>
  <line x1="310" y1="370" x2="1240" y2="370" stroke="#1c2434" stroke-width="1"/>
  <text x="330" y="396" fill="#c7d0df" font-family="Segoe UI,sans-serif" font-size="13">12 Jun 2026</text>
  <text x="460" y="396" fill="#e8edf5" font-family="Segoe UI,sans-serif" font-size="13">MacBook Air M3</text>
  <text x="660" y="396" fill="#b0c0d4" font-family="Segoe UI,sans-serif" font-size="13">PT Apple</text>
  <text x="840" y="396" fill="#e8edf5" font-family="Segoe UI,sans-serif" font-size="13">15</text>
  <text x="980" y="396" fill="#b0c0d4" font-family="Segoe UI,sans-serif" font-size="13">Staff Gudang</text>
  <rect x="1110" y="384" width="60" height="22" rx="11" fill="rgba(34,197,94,0.15)"/>
  <text x="1140" y="399" text-anchor="middle" fill="#22c55e" font-family="Segoe UI,sans-serif" font-size="11">Selesai</text>
</svg>