<svg xmlns="http://www.w3.org/2000/svg" viewBox="0 0 1280 720" width="1280" height="720">
  <defs><linearGradient id="pbg" x1="0" y1="0" x2="1" y2="1"><stop offset="0" stop-color="#0f1219"/><stop offset="1" stop-color="#1a1f2e"/></linearGradient><filter id="ps"><feDropShadow dx="0" dy="2" stdDeviation="8" flood-color="#000" flood-opacity="0.4"/></filter></defs>
  <rect width="1280" height="720" fill="url(#pbg)"/><rect x="0" y="0" width="280" height="720" fill="#11151e"/>
  <rect x="20" y="20" width="44" height="44" rx="10" fill="rgba(249,115,22,0.15)" stroke="#f97316" stroke-width="1.5"/>
  <polygon points="32,28 48,38 32,48 16,38" fill="none" stroke="#f97316" stroke-width="2"/>
  <line x1="32" y1="28" x2="32" y2="48" stroke="#f97316" stroke-width="2"/>
  <line x1="16" y1="38" x2="48" y2="38" stroke="#f97316" stroke-width="1.5"/>
  <text x="76" y="36" fill="#e8edf5" font-family="Segoe UI,sans-serif" font-size="15" font-weight="bold">RakElektronik</text>
  <text x="76" y="52" fill="#9ca8b8" font-family="Segoe UI,sans-serif" font-size="11">Sistem Gudang Elektronik</text>
  <text x="24" y="100" fill="#5a6a7e" font-family="Segoe UI,sans-serif" font-size="10" letter-spacing="2">OVERVIEW</text>
  <rect x="14" y="112" width="252" height="38" rx="8" fill="transparent"/><text x="48" y="138" fill="#b0c0d4" font-family="Segoe UI,sans-serif" font-size="14">Dashboard</text>
  <text x="24" y="180" fill="#5a6a7e" font-family="Segoe UI,sans-serif" font-size="10" letter-spacing="2">MASTER DATA</text>
  <rect x="14" y="192" width="252" height="38" rx="8" fill="rgba(249,115,22,0.12)" stroke="rgba(249,115,22,0.4)"/>
  <rect x="14" y="192" width="3" height="38" rx="1.5" fill="#f97316"/>
  <text x="48" y="218" fill="#fff" font-family="Segoe UI,sans-serif" font-size="14" font-weight="600">Data Barang</text>
  <rect x="14" y="234" width="252" height="38" rx="8" fill="transparent"/><text x="48" y="260" fill="#b0c0d4" font-family="Segoe UI,sans-serif" font-size="13">Kategori</text>
  <rect x="14" y="276" width="252" height="38" rx="8" fill="transparent"/><text x="48" y="302" fill="#b0c0d4" font-family="Segoe UI,sans-serif" font-size="13">Data Customer</text>
  <text x="24" y="340" fill="#5a6a7e" font-family="Segoe UI,sans-serif" font-size="10" letter-spacing="2">SALES & ORDER</text>
  <rect x="14" y="352" width="252" height="38" rx="8" fill="transparent"/><text x="48" y="378" fill="#b0c0d4" font-family="Segoe UI,sans-serif" font-size="13">Pesanan</text>
  <text x="24" y="420" fill="#5a6a7e" font-family="Segoe UI,sans-serif" font-size="10" letter-spacing="2">WAREHOUSE OPERATIONS</text>
  <rect x="14" y="432" width="252" height="38" rx="8" fill="transparent"/><text x="48" y="458" fill="#b0c0d4" font-family="Segoe UI,sans-serif" font-size="13">Barang Masuk</text>
  <rect x="14" y="474" width="252" height="38" rx="8" fill="transparent"/><text x="48" y="500" fill="#b0c0d4" font-family="Segoe UI,sans-serif" font-size="13">Pengeluaran Barang</text>
  <rect x="14" y="516" width="252" height="38" rx="8" fill="transparent"/><text x="48" y="542" fill="#b0c0d4" font-family="Segoe UI,sans-serif" font-size="13">Stok</text>
  <text x="24" y="580" fill="#5a6a7e" font-family="Segoe UI,sans-serif" font-size="10" letter-spacing="2">REPORTS</text>
  <rect x="14" y="592" width="252" height="38" rx="8" fill="transparent"/><text x="48" y="618" fill="#b0c0d4" font-family="Segoe UI,sans-serif" font-size="13">Laporan</text>
  <text x="24" y="656" fill="#5a6a7e" font-family="Segoe UI,sans-serif" font-size="10" letter-spacing="2">ADMINISTRATION</text>
  <rect x="14" y="668" width="252" height="38" rx="8" fill="transparent"/><text x="48" y="694" fill="#b0c0d4" font-family="Segoe UI,sans-serif" font-size="13">Users / Admin</text>
  <rect x="296" y="0" width="984" height="60" fill="#141a26"/>
  <line x1="296" y1="60" x2="1280" y2="60" stroke="#2a3348" stroke-width="1"/>
  <rect x="310" y="15" width="240" height="32" rx="8" fill="#1c2434" stroke="#2a3348" stroke-width="1"/>
  <text x="328" y="37" fill="#5a6a7e" font-family="Segoe UI,sans-serif" font-size="13">Cari sesuatu...</text>
  <rect x="1120" y="14" width="34" height="34" rx="17" fill="#2a3348"/>
  <circle cx="1137" cy="25" r="7" fill="#5a6a7e"/><circle cx="1137" cy="40" r="10" fill="#5a6a7e"/>
  <text x="1164" y="32" fill="#e8edf5" font-family="Segoe UI,sans-serif" font-size="13" font-weight="600">Super Admin</text><text x="1164" y="46" fill="#9ca8b8" font-family="Segoe UI,sans-serif" font-size="10">superadmin</text>
  <text x="310" y="98" fill="#e8edf5" font-family="Segoe UI,sans-serif" font-size="22" font-weight="bold">Data Barang</text>
  <text x="310" y="118" fill="#7d8aa0" font-family="Segoe UI,sans-serif" font-size="13">Manajemen produk elektronik</text>
  <rect x="1060" y="76" width="140" height="36" rx="8" fill="#f97316"/>
  <text x="1130" y="100" text-anchor="middle" fill="#fff" font-family="Segoe UI,sans-serif" font-size="13" font-weight="bold">+ Tambah</text>
  <rect x="310" y="140" width="930" height="50" rx="10" fill="#1c2434" stroke="#2a3348" stroke-width="1"/>
  <rect x="330" y="152" width="200" height="28" rx="6" fill="#141a26" stroke="#2a3348" stroke-width="1"/>
  <text x="340" y="171" fill="#5a6a7e" font-family="Segoe UI,sans-serif" font-size="12">Cari produk...</text>
  <rect x="550" y="152" width="120" height="28" rx="6" fill="#141a26" stroke="#2a3348" stroke-width="1"/>
  <text x="570" y="171" fill="#c7d0df" font-family="Segoe UI,sans-serif" font-size="12">Kategori</text>
  <rect x="690" y="152" width="120" height="28" rx="6" fill="#141a26" stroke="#2a3348" stroke-width="1"/>
  <text x="710" y="171" fill="#c7d0df" font-family="Segoe UI,sans-serif" font-size="12">Urutkan</text>
  <rect x="310" y="210" width="930" height="340" rx="10" fill="#1c2434" stroke="#2a3348" stroke-width="1"/>
  <rect x="310" y="210" width="930" height="40" rx="10" fill="#141a26"/>
  <text x="330" y="236" fill="#9ca8b8" font-family="Segoe UI,sans-serif" font-size="12" font-weight="bold">Gambar</text>
  <text x="410" y="236" fill="#9ca8b8" font-family="Segoe UI,sans-serif" font-size="12" font-weight="bold">Nama Barang</text>
  <text x="630" y="236" fill="#9ca8b8" font-family="Segoe UI,sans-serif" font-size="12" font-weight="bold">Kategori</text>
  <text x="790" y="236" fill="#9ca8b8" font-family="Segoe UI,sans-serif" font-size="12" font-weight="bold">Harga</text>
  <text x="910" y="236" fill="#9ca8b8" font-family="Segoe UI,sans-serif" font-size="12" font-weight="bold">Stok</text>
  <text x="1020" y="236" fill="#9ca8b8" font-family="Segoe UI,sans-serif" font-size="12" font-weight="bold">Aksi</text>
  <line x1="310" y1="250" x2="1240" y2="250" stroke="#2a3348" stroke-width="1"/>
  <rect x="330" y="264" width="40" height="40" rx="6" fill="rgba(59,130,246,0.15)"/>
  <rect x="335" y="269" width="30" height="30" rx="4" fill="#3b82f6" opacity="0.3"/>
  <text x="410" y="290" fill="#e8edf5" font-family="Segoe UI,sans-serif" font-size="13">Samsung Galaxy S24</text>
  <text x="630" y="290" fill="#b0c0d4" font-family="Segoe UI,sans-serif" font-size="13">Elektronik</text>
  <text x="790" y="290" fill="#e8edf5" font-family="Segoe UI,sans-serif" font-size="13">Rp12.000.000</text>
  <rect x="900" y="278" width="50" height="22" rx="11" fill="rgba(34,197,94,0.15)"/>
  <text x="925" y="293" text-anchor="middle" fill="#22c55e" font-family="Segoe UI,sans-serif" font-size="11">50</text>
  <line x1="310" y1="314" x2="1240" y2="314" stroke="#1c2434" stroke-width="1"/>
  <rect x="330" y="328" width="40" height="40" rx="6" fill="rgba(249,115,22,0.15)"/>
  <rect x="335" y="333" width="30" height="30" rx="4" fill="#f97316" opacity="0.3"/>
  <text x="410" y="354" fill="#e8edf5" font-family="Segoe UI,sans-serif" font-size="13">LG 43" 4K Smart TV</text>
  <text x="630" y="354" fill="#b0c0d4" font-family="Segoe UI,sans-serif" font-size="13">Elektronik</text>
  <text x="790" y="354" fill="#e8edf5" font-family="Segoe UI,sans-serif" font-size="13">Rp5.500.000</text>
  <rect x="900" y="342" width="50" height="22" rx="11" fill="rgba(249,115,22,0.15)"/>
  <text x="925" y="357" text-anchor="middle" fill="#f97316" font-family="Segoe UI,sans-serif" font-size="11">12</text>
  <line x1="310" y1="378" x2="1240" y2="378" stroke="#1c2434" stroke-width="1"/>
  <rect x="330" y="392" width="40" height="40" rx="6" fill="rgba(168,85,247,0.15)"/>
  <rect x="335" y="397" width="30" height="30" rx="4" fill="#a855f7" opacity="0.3"/>
  <text x="410" y="418" fill="#e8edf5" font-family="Segoe UI,sans-serif" font-size="13">Sony WH-1000XM5</text>
  <text x="630" y="418" fill="#b0c0d4" font-family="Segoe UI,sans-serif" font-size="13">Aksesoris</text>
  <text x="790" y="418" fill="#e8edf5" font-family="Segoe UI,sans-serif" font-size="13">Rp3.200.000</text>
  <rect x="900" y="406" width="50" height="22" rx="11" fill="rgba(239,68,68,0.15)"/>
  <text x="925" y="421" text-anchor="middle" fill="#ef4444" font-family="Segoe UI,sans-serif" font-size="11">3</text>
  <line x1="310" y1="442" x2="1240" y2="442" stroke="#1c2434" stroke-width="1"/>
  <rect x="330" y="456" width="40" height="40" rx="6" fill="rgba(34,197,94,0.15)"/>
  <rect x="335" y="461" width="30" height="30" rx="4" fill="#22c55e" opacity="0.3"/>
  <text x="410" y="482" fill="#e8edf5" font-family="Segoe UI,sans-serif" font-size="13">MacBook Air M3</text>
  <text x="630" y="482" fill="#b0c0d4" font-family="Segoe UI,sans-serif" font-size="13">Laptop</text>
  <text x="790" y="482" fill="#e8edf5" font-family="Segoe UI,sans-serif" font-size="13">Rp18.000.000</text>
  <rect x="900" y="470" width="50" height="22" rx="11" fill="rgba(34,197,94,0.15)"/>
  <text x="925" y="485" text-anchor="middle" fill="#22c55e" font-family="Segoe UI,sans-serif" font-size="11">25</text>
</svg>