<svg xmlns="http://www.w3.org/2000/svg" viewBox="0 0 1280 720" width="1280" height="720">
  <defs><linearGradient id="ubg" x1="0" y1="0" x2="1" y2="1"><stop offset="0" stop-color="#0f1219"/><stop offset="1" stop-color="#1a1f2e"/></linearGradient><filter id="us"><feDropShadow dx="0" dy="2" stdDeviation="8" flood-color="#000" flood-opacity="0.4"/></filter></defs>
  <rect width="1280" height="720" fill="url(#ubg)"/><rect x="0" y="0" width="280" height="720" fill="#11151e"/>
  <rect x="20" y="20" width="44" height="44" rx="10" fill="rgba(249,115,22,0.15)" stroke="#f97316" stroke-width="1.5"/>
  <polygon points="32,28 48,38 32,48 16,38" fill="none" stroke="#f97316" stroke-width="2"/>
  <line x1="32" y1="28" x2="32" y2="48" stroke="#f97316" stroke-width="2"/>
  <line x1="16" y1="38" x2="48" y2="38" stroke="#f97316" stroke-width="1.5"/>
  <text x="76" y="36" fill="#e8edf5" font-family="Segoe UI,sans-serif" font-size="15" font-weight="bold">RakElektronik</text><text x="76" y="52" fill="#9ca8b8" font-family="Segoe UI,sans-serif" font-size="11">Sistem Gudang Elektronik</text>
  <text x="24" y="100" fill="#5a6a7e" font-family="Segoe UI,sans-serif" font-size="10" letter-spacing="2">OVERVIEW</text>
  <rect x="14" y="112" width="252" height="38" rx="8" fill="transparent"/><text x="48" y="138" fill="#b0c0d4" font-family="Segoe UI,sans-serif" font-size="14">Dashboard</text>
  <text x="24" y="180" fill="#5a6a7e" font-family="Segoe UI,sans-serif" font-size="10" letter-spacing="2">MASTER DATA</text>
  <rect x="14" y="192" width="252" height="38" rx="8" fill="transparent"/><text x="48" y="218" fill="#b0c0d4" font-family="Segoe UI,sans-serif" font-size="13">Data Barang</text>
  <rect x="14" y="234" width="252" height="38" rx="8" fill="transparent"/><text x="48" y="260" fill="#b0c0d4" font-family="Segoe UI,sans-serif" font-size="13">Kategori</text>
  <rect x="14" y="276" width="252" height="38" rx="8" fill="transparent"/><text x="48" y="302" fill="#b0c0d4" font-family="Segoe UI,sans-serif" font-size="13">Data Customer</text>
  <text x="24" y="340" fill="#5a6a7e" font-family="Segoe UI,sans-serif" font-size="10" letter-spacing="2">SALES & ORDER</text>
  <rect x="14" y="352" width="252" height="38" rx="8" fill="transparent"/><text x="48" y="378" fill="#b0c0d4" font-family="Segoe UI,sans-serif" font-size="13">Pesanan</text>
  <text x="24" y="420" fill="#5a6a7e" font-family="Segoe UI,sans-serif" font-size="10" letter-spacing="2">WAREHOUSE OPERATIONS</text>
  <rect x="14" y="432" width="252" height="38" rx="8" fill="transparent"/><text x="48" y="458" fill="#b0c0d4" font-family="Segoe UI,sans-serif" font-size="13">Barang Masuk</text>
  <rect x="14" y="474" width="252" height="38" rx="8" fill="transparent"/><text x="48" y="500" fill="#b0c0d4" font-family="Segoe UI,sans-serif" font-size="13">Pengeluaran Barang</text>
  <rect x="14" y="516" width="252" height="38" rx="8" fill="transparent"/><text x="48" y="542" fill="#b0c0d4" font-family="Segoe UI,sans-serif" font-size="13">Stok</text>
  <text x="24" y="580" fill="#5a6a7e" font-family="Segoe UI,sans-serif" font-size="10" letter-spacing="2">REPORTS</text>
  <rect x="14" y="592" width="252" height="38" rx="8" fill="transparent"/><text x="48" y="618" fill="#b0c0d4" font-family="Segoe UI,sans-serif" font-size="13">Laporan</text>
  <text x="24" y="656" fill="#5a6a7e" font-family="Segoe UI,sans-serif" font-size="10" letter-spacing="2">ADMINISTRATION</text>
  <rect x="14" y="668" width="252" height="38" rx="8" fill="rgba(249,115,22,0.12)" stroke="rgba(249,115,22,0.4)"/>
  <rect x="14" y="668" width="3" height="38" rx="1.5" fill="#f97316"/>
  <text x="48" y="694" fill="#fff" font-family="Segoe UI,sans-serif" font-size="14" font-weight="600">Users / Admin</text>
  <rect x="296" y="0" width="984" height="60" fill="#141a26"/>
  <line x1="296" y1="60" x2="1280" y2="60" stroke="#2a3348" stroke-width="1"/>
  <rect x="1120" y="14" width="34" height="34" rx="17" fill="#2a3348"/>
  <circle cx="1137" cy="25" r="7" fill="#5a6a7e"/><circle cx="1137" cy="40" r="10" fill="#5a6a7e"/>
  <text x="1164" y="32" fill="#e8edf5" font-family="Segoe UI,sans-serif" font-size="13" font-weight="600">Super Admin</text><text x="1164" y="46" fill="#9ca8b8" font-family="Segoe UI,sans-serif" font-size="10">superadmin</text>
  <text x="310" y="98" fill="#e8edf5" font-family="Segoe UI,sans-serif" font-size="22" font-weight="bold">Manajemen Pengguna</text>
  <text x="310" y="118" fill="#7d8aa0" font-family="Segoe UI,sans-serif" font-size="13">Kelola user dan hak akses sistem</text>
  <rect x="1050" y="76" width="140" height="36" rx="8" fill="#f97316"/>
  <text x="1120" y="100" text-anchor="middle" fill="#fff" font-family="Segoe UI,sans-serif" font-size="13" font-weight="bold">+ User Baru</text>
  <rect x="310" y="140" width="930" height="400" rx="10" fill="#1c2434" stroke="#2a3348" stroke-width="1"/>
  <rect x="310" y="140" width="930" height="40" rx="10" fill="#141a26"/>
  <text x="330" y="166" fill="#9ca8b8" font-family="Segoe UI,sans-serif" font-size="12" font-weight="bold">User</text>
  <text x="500" y="166" fill="#9ca8b8" font-family="Segoe UI,sans-serif" font-size="12" font-weight="bold">Username</text>
  <text x="660" y="166" fill="#9ca8b8" font-family="Segoe UI,sans-serif" font-size="12" font-weight="bold">Role</text>
  <text x="830" y="166" fill="#9ca8b8" font-family="Segoe UI,sans-serif" font-size="12" font-weight="bold">Email</text>
  <text x="1050" y="166" fill="#9ca8b8" font-family="Segoe UI,sans-serif" font-size="12" font-weight="bold">Status</text>
  <line x1="310" y1="180" x2="1240" y2="180" stroke="#2a3348" stroke-width="1"/>
  <circle cx="350" cy="212" r="16" fill="rgba(249,115,22,0.2)" stroke="#f97316" stroke-width="1.5"/>
  <text x="350" y="218" text-anchor="middle" fill="#f97316" font-family="Segoe UI,sans-serif" font-size="13" font-weight="bold">SA</text>
  <text x="500" y="218" fill="#e8edf5" font-family="Segoe UI,sans-serif" font-size="13">superadmin</text>
  <rect x="650" y="206" width="90" height="22" rx="11" fill="rgba(249,115,22,0.15)"/>
  <text x="695" y="221" text-anchor="middle" fill="#f97316" font-family="Segoe UI,sans-serif" font-size="11">Super Admin</text>
  <text x="830" y="218" fill="#b0c0d4" font-family="Segoe UI,sans-serif" font-size="13">admin@warehouse.com</text>
  <rect x="1040" y="206" width="60" height="22" rx="11" fill="rgba(34,197,94,0.15)"/>
  <text x="1070" y="221" text-anchor="middle" fill="#22c55e" font-family="Segoe UI,sans-serif" font-size="11">Aktif</text>
  <line x1="310" y1="236" x2="1240" y2="236" stroke="#1c2434" stroke-width="1"/>
  <circle cx="350" cy="268" r="16" fill="rgba(59,130,246,0.2)" stroke="#3b82f6" stroke-width="1.5"/>
  <text x="350" y="274" text-anchor="middle" fill="#3b82f6" font-family="Segoe UI,sans-serif" font-size="13" font-weight="bold">AD</text>
  <text x="500" y="274" fill="#e8edf5" font-family="Segoe UI,sans-serif" font-size="13">admin</text>
  <rect x="650" y="262" width="70" height="22" rx="11" fill="rgba(59,130,246,0.15)"/>
  <text x="685" y="277" text-anchor="middle" fill="#3b82f6" font-family="Segoe UI,sans-serif" font-size="11">Admin</text>
  <text x="830" y="274" fill="#b0c0d4" font-family="Segoe UI,sans-serif" font-size="13">admin@warehouse.com</text>
  <rect x="1040" y="262" width="60" height="22" rx="11" fill="rgba(34,197,94,0.15)"/>
  <text x="1070" y="277" text-anchor="middle" fill="#22c55e" font-family="Segoe UI,sans-serif" font-size="11">Aktif</text>
  <line x1="310" y1="292" x2="1240" y2="292" stroke="#1c2434" stroke-width="1"/>
  <circle cx="350" cy="324" r="16" fill="rgba(34,197,94,0.2)" stroke="#22c55e" stroke-width="1.5"/>
  <text x="350" y="330" text-anchor="middle" fill="#22c55e" font-family="Segoe UI,sans-serif" font-size="13" font-weight="bold">WG</text>
  <text x="500" y="330" fill="#e8edf5" font-family="Segoe UI,sans-serif" font-size="13">staffgudang</text>
  <rect x="650" y="318" width="100" height="22" rx="11" fill="rgba(34,197,94,0.15)"/>
  <text x="700" y="333" text-anchor="middle" fill="#22c55e" font-family="Segoe UI,sans-serif" font-size="11">Staff Gudang</text>
  <text x="830" y="330" fill="#b0c0d4" font-family="Segoe UI,sans-serif" font-size="13">gudang@warehouse.com</text>
  <rect x="1040" y="318" width="60" height="22" rx="11" fill="rgba(34,197,94,0.15)"/>
  <text x="1070" y="333" text-anchor="middle" fill="#22c55e" font-family="Segoe UI,sans-serif" font-size="11">Aktif</text>
  <line x1="310" y1="348" x2="1240" y2="348" stroke="#1c2434" stroke-width="1"/>
  <circle cx="350" cy="380" r="16" fill="rgba(168,85,247,0.2)" stroke="#a855f7" stroke-width="1.5"/>
  <text x="350" y="386" text-anchor="middle" fill="#a855f7" font-family="Segoe UI,sans-serif" font-size="13" font-weight="bold">SP</text>
  <text x="500" y="386" fill="#e8edf5" font-family="Segoe UI,sans-serif" font-size="13">staffsales</text>
  <rect x="650" y="374" width="100" height="22" rx="11" fill="rgba(168,85,247,0.15)"/>
  <text x="700" y="389" text-anchor="middle" fill="#a855f7" font-family="Segoe UI,sans-serif" font-size="11">Staff Sales</text>
  <text x="830" y="386" fill="#b0c0d4" font-family="Segoe UI,sans-serif" font-size="13">sales@warehouse.com</text>
  <rect x="1040" y="374" width="60" height="22" rx="11" fill="rgba(239,68,68,0.15)"/>
  <text x="1070" y="389" text-anchor="middle" fill="#ef4444" font-family="Segoe UI,sans-serif" font-size="11">Nonaktif</text>
  <line x1="310" y1="404" x2="1240" y2="404" stroke="#1c2434" stroke-width="1"/>
  <circle cx="350" cy="436" r="16" fill="rgba(34,197,94,0.2)" stroke="#22c55e" stroke-width="1.5"/>
  <text x="350" y="442" text-anchor="middle" fill="#22c55e" font-family="Segoe UI,sans-serif" font-size="13" font-weight="bold">KR</text>
  <text x="500" y="442" fill="#e8edf5" font-family="Segoe UI,sans-serif" font-size="13">kurir</text>
  <rect x="650" y="430" width="70" height="22" rx="11" fill="rgba(34,197,94,0.15)"/>
  <text x="685" y="445" text-anchor="middle" fill="#22c55e" font-family="Segoe UI,sans-serif" font-size="11">Kurir</text>
  <text x="830" y="442" fill="#b0c0d4" font-family="Segoe UI,sans-serif" font-size="13">kurir@warehouse.com</text>
  <rect x="1040" y="430" width="60" height="22" rx="11" fill="rgba(34,197,94,0.15)"/>
  <text x="1070" y="445" text-anchor="middle" fill="#22c55e" font-family="Segoe UI,sans-serif" font-size="11">Aktif</text>
</svg>